<?xml version="1.0" encoding="UTF-8" standalone="no"?>
<svg
   width="1300"
   height="400"
   viewBox="0 0 1300 400"
   version="1.1"
   id="svg17"
   xml:space="preserve"
   xmlns="http://www.w3.org/2000/svg"
   xmlns:svg="http://www.w3.org/2000/svg"><defs
     id="defs17" /><path
     id="Rectangle"
     style="fill:#000;fill-opacity:1;stroke-width:0.971486"
     d="M 94.800781,0 V 157.09766 L 20.041016,129.67578 0,185.16992 94.800781,219.94336 V 400 H 154.67383 V 241.9043 l 74.75976,27.42187 20.04102,-55.49219 -94.80078,-34.77343 V 0 Z M 1040.5469,0 v 400 h 59.5449 V 84.630859 l 70.1855,70.542971 v 0.002 0 l 70.1758,-70.537108 V 400 H 1300 V 0 h -59.5449 V 0 L 1170.2773,70.535156 1100.1016,0 l -0.01,0.00976563 V 0 Z M 408.46289,0.99804688 261.58398,156.49609 l 0.0137,0.0137 -0.0137,0.0137 107.12305,113.4101 L 285.9082,357.5918 325.96484,400 408.76367,312.3418 491.5625,400 l 40.05859,-42.4082 -82.79882,-87.65821 107.12304,-113.41015 -0.004,-0.004 0.0215,-0.0234 L 409.08398,0.99804688 408.77344,1.3261719 Z m 187.44727,0 V 400 h 59.875 V 271.67383 l 125.3125,128.32031 40.97851,-41.96289 -109.06445,-111.68359 91.17383,-93.36328 c 0,0 -98.89269,-101.322207 -148.33594,-151.98633312 l -0.0644,0.0664062 v -0.0664062 z m 368.88867,0 -128.64258,132.18359312 68.33398,70.21289 -68.33398,70.21485 0.002,0.004 -0.002,0.002 123,126.38477 40.99995,-42.12891 -82.00386,-84.25976 68.33594,-70.21485 v -0.002 L 918.1543,133.18164 1005.7988,43.125 Z M 655.78516,84.857422 722.27148,152.94141 655.78516,220.5918 Z M 408.77344,85.486328 475.85156,156.5 408.76367,227.52539 341.6875,156.50977 Z" /></svg>
